{
    "asset" : {
        "generator" : "Khronos glTF Blender I/O v1.6.16",
        "version" : "2.0"
    },
    "scene" : 0,
    "scenes" : [
        {
            "name" : "Scene",
            "nodes" : [
                5
            ]
        }
    ],
    "nodes" : [
        {
            "mesh" : 0,
            "name" : "BezierCurve.003",
            "rotation" : [
                -0.0029315748251974583,
                0.019679907709360123,
                -0.7887371778488159,
                0.6144084930419922
            ],
            "translation" : [
                -0.010802235454320908,
                0.008095692843198776,
                -0.015653617680072784
            ]
        },
        {
            "mesh" : 1,
            "name" : "BezierCurve.007",
            "rotation" : [
                -0.04302379861474037,
                -0.057953644543886185,
                -0.9904712438583374,
                0.11729051172733307
            ],
            "translation" : [
                -0.04007388651371002,
                0.1586001217365265,
                -0.040247417986392975
            ]
        },
        {
            "mesh" : 2,
            "name" : "Cherry.003",
            "rotation" : [
                -0.18857619166374207,
                -0.4730268716812134,
                -0.8126020431518555,
                0.2834828197956085
            ],
            "translation" : [
                3.902241587638855e-06,
                0.02950938604772091,
                -0.03330913931131363
            ]
        },
        {
            "mesh" : 3,
            "name" : "Cherry.004",
            "rotation" : [
                0.5594440698623657,
                0.2025555968284607,
                -0.6080573797225952,
                0.5256043672561646
            ],
            "translation" : [
                -0.027835188433527946,
                0.025175128132104874,
                -0.019430598244071007
            ]
        },
        {
            "mesh" : 4,
            "name" : "Leaf.004",
            "rotation" : [
                0.4821641147136688,
                0.48668816685676575,
                0.030065812170505524,
                0.7278382778167725
            ],
            "translation" : [
                -0.007664661388844252,
                0.008098511956632137,
                -0.00045488541945815086
            ]
        },
        {
            "children" : [
                0,
                1,
                2,
                3,
                4
            ],
            "mesh" : 5,
            "name" : "Cube.010",
            "rotation" : [
                0.1791364997625351,
                0.3726542592048645,
                0.8973809480667114,
                0.1540985107421875
            ],
            "translation" : [
                0.0034927409142255783,
                0.027492912486195564,
                0
            ]
        }
    ],
    "materials" : [
        {
            "doubleSided" : true,
            "name" : "plain",
            "pbrMetallicRoughness" : {
                "baseColorFactor" : [
                    0,
                    0,
                    0,
                    1
                ],
                "metallicFactor" : 0,
                "roughnessFactor" : 0.5
            }
        }
    ],
    "meshes" : [
        {
            "name" : "BezierCurve.003",
            "primitives" : [
                {
                    "attributes" : {
                        "POSITION" : 0,
                        "TEXCOORD_0" : 1
                    },
                    "indices" : 2,
                    "material" : 0
                }
            ]
        },
        {
            "name" : "BezierCurve.004",
            "primitives" : [
                {
                    "attributes" : {
                        "POSITION" : 3,
                        "TEXCOORD_0" : 4
                    },
                    "indices" : 5,
                    "material" : 0
                }
            ]
        },
        {
            "name" : "Plane.019",
            "primitives" : [
                {
                    "attributes" : {
                        "POSITION" : 6,
                        "TEXCOORD_0" : 7
                    },
                    "indices" : 8,
                    "material" : 0
                }
            ]
        },
        {
            "name" : "Plane.018",
            "primitives" : [
                {
                    "attributes" : {
                        "POSITION" : 9,
                        "TEXCOORD_0" : 10
                    },
                    "indices" : 11,
                    "material" : 0
                }
            ]
        },
        {
            "name" : "Plane.020",
            "primitives" : [
                {
                    "attributes" : {
                        "POSITION" : 12,
                        "TEXCOORD_0" : 13
                    },
                    "indices" : 14,
                    "material" : 0
                }
            ]
        },
        {
            "name" : "Cube.005",
            "primitives" : [
                {
                    "attributes" : {
                        "POSITION" : 15,
                        "TEXCOORD_0" : 16
                    },
                    "indices" : 17,
                    "material" : 0
                }
            ]
        }
    ],
    "accessors" : [
        {
            "bufferView" : 0,
            "componentType" : 5126,
            "count" : 273,
            "max" : [
                0.004088636487722397,
                0.012780164368450642,
                0.01650024764239788
            ],
            "min" : [
                -0.012456027790904045,
                -0.017731105908751488,
                -0.0032689874060451984
            ],
            "type" : "VEC3"
        },
        {
            "bufferView" : 1,
            "componentType" : 5126,
            "count" : 273,
            "type" : "VEC2"
        },
        {
            "bufferView" : 2,
            "componentType" : 5123,
            "count" : 1368,
            "type" : "SCALAR"
        },
        {
            "bufferView" : 3,
            "componentType" : 5126,
            "count" : 265,
            "max" : [
                0.0016433419659733772,
                0.16701188683509827,
                0.023240117356181145
            ],
            "min" : [
                -0.015975046902894974,
                0.13752542436122894,
                -0.0029028658755123615
            ],
            "type" : "VEC3"
        },
        {
            "bufferView" : 4,
            "componentType" : 5126,
            "count" : 265,
            "type" : "VEC2"
        },
        {
            "bufferView" : 5,
            "componentType" : 5123,
            "count" : 1326,
            "type" : "SCALAR"
        },
        {
            "bufferView" : 6,
            "componentType" : 5126,
            "count" : 948,
            "max" : [
                0.013260968960821629,
                0.011434094049036503,
                0.013471869751811028
            ],
            "min" : [
                -0.012787417508661747,
                -0.011454716324806213,
                -0.013086876831948757
            ],
            "type" : "VEC3"
        },
        {
            "bufferView" : 7,
            "componentType" : 5126,
            "count" : 948,
            "type" : "VEC2"
        },
        {
            "bufferView" : 8,
            "componentType" : 5123,
            "count" : 4980,
            "type" : "SCALAR"
        },
        {
            "bufferView" : 9,
            "componentType" : 5126,
            "count" : 3875,
            "max" : [
                0.013105619698762894,
                0.011388333514332771,
                0.0135777173563838
            ],
            "min" : [
                -0.01309492252767086,
                -0.011331885121762753,
                -0.012942714616656303
            ],
            "type" : "VEC3"
        },
        {
            "bufferView" : 10,
            "componentType" : 5126,
            "count" : 3875,
            "type" : "VEC2"
        },
        {
            "bufferView" : 11,
            "componentType" : 5123,
            "count" : 19584,
            "type" : "SCALAR"
        },
        {
            "bufferView" : 12,
            "componentType" : 5126,
            "count" : 627,
            "max" : [
                0.0053505743853747845,
                0.0009355898364447057,
                0.011418886482715607
            ],
            "min" : [
                -0.005131484940648079,
                -0.0014312807470560074,
                -0.008565415628254414
            ],
            "type" : "VEC3"
        },
        {
            "bufferView" : 13,
            "componentType" : 5126,
            "count" : 627,
            "type" : "VEC2"
        },
        {
            "bufferView" : 14,
            "componentType" : 5123,
            "count" : 2994,
            "type" : "SCALAR"
        },
        {
            "bufferView" : 15,
            "componentType" : 5126,
            "count" : 92,
            "max" : [
                0.010931208729743958,
                0.0031132737640291452,
                0.0039735897444188595
            ],
            "min" : [
                -0.011223910376429558,
                -0.0031445506028831005,
                -0.0039023789577186108
            ],
            "type" : "VEC3"
        },
        {
            "bufferView" : 16,
            "componentType" : 5126,
            "count" : 92,
            "type" : "VEC2"
        },
        {
            "bufferView" : 17,
            "componentType" : 5123,
            "count" : 252,
            "type" : "SCALAR"
        }
    ],
    "bufferViews" : [
        {
            "buffer" : 0,
            "byteLength" : 3276,
            "byteOffset" : 0
        },
        {
            "buffer" : 0,
            "byteLength" : 2184,
            "byteOffset" : 3276
        },
        {
            "buffer" : 0,
            "byteLength" : 2736,
            "byteOffset" : 5460
        },
        {
            "buffer" : 0,
            "byteLength" : 3180,
            "byteOffset" : 8196
        },
        {
            "buffer" : 0,
            "byteLength" : 2120,
            "byteOffset" : 11376
        },
        {
            "buffer" : 0,
            "byteLength" : 2652,
            "byteOffset" : 13496
        },
        {
            "buffer" : 0,
            "byteLength" : 11376,
            "byteOffset" : 16148
        },
        {
            "buffer" : 0,
            "byteLength" : 7584,
            "byteOffset" : 27524
        },
        {
            "buffer" : 0,
            "byteLength" : 9960,
            "byteOffset" : 35108
        },
        {
            "buffer" : 0,
            "byteLength" : 46500,
            "byteOffset" : 45068
        },
        {
            "buffer" : 0,
            "byteLength" : 31000,
            "byteOffset" : 91568
        },
        {
            "buffer" : 0,
            "byteLength" : 39168,
            "byteOffset" : 122568
        },
        {
            "buffer" : 0,
            "byteLength" : 7524,
            "byteOffset" : 161736
        },
        {
            "buffer" : 0,
            "byteLength" : 5016,
            "byteOffset" : 169260
        },
        {
            "buffer" : 0,
            "byteLength" : 5988,
            "byteOffset" : 174276
        },
        {
            "buffer" : 0,
            "byteLength" : 1104,
            "byteOffset" : 180264
        },
        {
            "buffer" : 0,
            "byteLength" : 736,
            "byteOffset" : 181368
        },
        {
            "buffer" : 0,
            "byteLength" : 504,
            "byteOffset" : 182104
        }
    ],
    "buffers" : [
        {
            "byteLength" : 182608,
            "uri" : "data:application/octet-stream;base64,"
        }
    ]
}
